<svg width="24.000000" height="24.000000" viewBox="0 0 24 24" fill="none" xmlns="http://www.w3.org/2000/svg" xmlns:xlink="http://www.w3.org/1999/xlink">
	<desc>
			Created with Pixso.
	</desc>
	<defs/>
	<path id="Subtract" d="M18.48 19.79L18.48 19.78L18.5 19.74L21.5 4.62L21.5 4.57C21.5 4.2 21.36 3.87 21.05 3.67C20.79 3.5 20.48 3.48 20.27 3.5C20.04 3.52 19.83 3.57 19.68 3.62C19.61 3.64 19.54 3.67 19.5 3.69C19.48 3.69 19.46 3.7 19.44 3.71L19.43 3.71L2.71 10.27L2.71 10.27C2.7 10.28 2.68 10.28 2.67 10.29C2.64 10.3 2.6 10.31 2.56 10.34C2.47 10.38 2.34 10.44 2.21 10.53C2 10.67 1.59 11.02 1.66 11.57C1.72 12.03 2.03 12.32 2.24 12.47C2.36 12.55 2.47 12.61 2.55 12.65C2.59 12.67 2.62 12.68 2.65 12.69C2.66 12.7 2.67 12.7 2.68 12.71L2.69 12.71L2.7 12.71L5.62 13.7C5.61 13.88 5.63 14.07 5.68 14.25L7.14 19.81C7.32 20.47 7.91 20.93 8.6 20.93C9.21 20.93 9.75 20.56 9.98 20.01L12.27 17.56L16.2 20.57L16.25 20.6C16.61 20.75 16.94 20.8 17.25 20.76C17.55 20.72 17.79 20.59 17.98 20.45C18.15 20.3 18.28 20.14 18.35 20.02C18.39 19.96 18.42 19.9 18.44 19.86C18.45 19.84 18.46 19.83 18.47 19.81L18.47 19.79L18.48 19.79L18.48 19.79ZM7.13 13.87C7.1 13.74 7.15 13.61 7.26 13.54L17.18 7.24C17.18 7.24 17.76 6.89 17.74 7.24C17.74 7.24 17.85 7.3 17.54 7.59C17.24 7.87 10.46 14.41 9.78 15.07C9.74 15.11 9.71 15.16 9.7 15.21L8.6 19.43L7.13 13.87Z" fill="#149EF2" fill-opacity="1.000000" fill-rule="evenodd"/>
</svg>
