<svg width="623.000000" height="114.781250" viewBox="0 0 623 114.781" fill="none" xmlns="http://www.w3.org/2000/svg" xmlns:xlink="http://www.w3.org/1999/xlink">
	<desc>
			Created with Pixso.
	</desc>
	<defs/>
	<path id="Union" d="M27.6324 43.4863L45.1711 73L70.1548 73L47.0324 35.0742L80.7496 0L55.6944 0L30.0663 27.5176L27.4893 27.5176L32.0708 0L12.1697 0L0 73L19.9011 73L24.8405 43.4863L27.6324 43.4863ZM107.568 0L87.6667 0L75.497 73L92.1051 73L124.963 34.6465L125.393 34.6465L119.022 73L138.923 73L151.092 0L134.198 0L101.769 38.2109L101.197 38.2109L107.568 0ZM160.506 0L148.336 73L175.682 73C181.839 73 187.399 71.9663 192.362 69.8989C197.349 67.8315 201.43 64.9562 204.603 61.2729C207.801 57.5897 209.805 53.3242 210.617 48.4766C210.852 47.0679 210.97 45.7123 210.97 44.41C210.97 41.2307 210.268 38.3683 208.863 35.8228C206.906 32.2345 203.78 29.4543 199.485 27.4819C195.214 25.5096 190 24.5234 183.843 24.5234L176.255 24.5234L177.687 15.9688L209.328 15.9688L212.048 0L160.506 0ZM225.766 0L213.596 73L266.284 73L269.004 57.0312L236.218 57.0312L238.222 44.4844L268.432 44.4844L271.152 28.5156L240.943 28.5156L242.947 15.9688L275.877 15.9688L278.597 0L225.766 0ZM288.467 0L276.297 73L296.198 73L299.834 51.3281L310.802 51.3281C316.433 51.3281 321.516 50.3063 326.05 48.2627C330.608 46.1953 334.354 43.2606 337.289 39.4585C340.248 35.6327 342.157 31.082 343.016 25.8066C343.313 24.0135 343.462 22.2986 343.462 20.662C343.462 17.5706 342.932 14.7587 341.871 12.2261C340.248 8.35271 337.575 5.34668 333.853 3.20801Q328.269 0 320.108 0L288.467 0ZM352.609 0L349.888 15.9688L371.937 15.9688L362.488 73L382.102 73L391.552 15.9688L413.6 15.9688L416.321 0L352.609 0ZM423.81 0L411.641 73L464.328 73L467.049 57.0312L434.262 57.0312L436.266 44.4844L466.476 44.4844L469.196 28.5156L438.987 28.5156L440.991 15.9688L473.921 15.9688L476.641 0L423.81 0ZM501.974 43.4863L519.513 73L544.496 73L521.374 35.0742L555.091 0L530.036 0L504.408 27.5176L501.831 27.5176L506.412 0L486.511 0L474.342 73L494.243 73L499.182 43.4863L501.974 43.4863ZM547.405 73L568.881 73L575.461 59.0273L599.633 59.0273L601.524 73L623 73L610.973 0L583.771 0L547.405 73ZM309.37 35.9297L302.418 35.9297L305.791 15.8262L312.807 15.8262C315.145 15.8262 317.066 16.2301 318.569 17.0381C320.096 17.8223 321.17 18.9629 321.791 20.46C322.215 21.4302 322.427 22.5344 322.427 23.7726C322.427 24.4146 322.37 25.0926 322.256 25.8066C321.922 27.8978 321.194 29.7038 320.073 31.2246C318.951 32.7217 317.483 33.8861 315.67 34.7178C313.856 35.5257 311.757 35.9297 309.37 35.9297ZM594.365 20.1035L597.626 44.1992L582.445 44.1992L593.793 20.1035L594.365 20.1035ZM178.26 57.459L170.815 57.459L173.821 39.6367L181.266 39.6367C184.845 39.6367 187.446 40.4684 189.069 42.1318C190.352 43.4283 190.994 44.9922 190.994 46.8235Q190.994 47.5506 190.859 48.334Q190.625 49.7673 190.033 51.0323Q189.534 52.0951 188.783 53.0391C187.709 54.4173 186.277 55.4985 184.488 56.2827C182.722 57.0669 180.646 57.459 178.26 57.459ZM186.325 92.9773L188.25 92.9773C188.25 93.8059 187.949 94.4782 187.348 94.9943C186.751 95.5057 185.941 95.7614 184.919 95.7614C183.905 95.7614 183.098 95.5057 182.497 94.9943Q182.112 94.6614 181.894 94.2419Q181.605 93.6857 181.609 92.9773L183.52 92.9773C183.52 93.3182 183.624 93.6236 183.832 93.8935C184.045 94.1586 184.407 94.2912 184.919 94.2912C185.421 94.2912 185.778 94.1586 185.991 93.8935C186.209 93.6283 186.32 93.3229 186.325 92.9773ZM561.966 92.9773L563.89 92.9773Q563.89 93.6781 563.604 94.2298Q563.382 94.6567 562.988 94.9943C562.392 95.5057 561.582 95.7614 560.559 95.7614C559.546 95.7614 558.739 95.5057 558.137 94.9943C557.541 94.4782 557.245 93.8059 557.25 92.9773L559.16 92.9773C559.16 93.3182 559.264 93.6236 559.473 93.8935C559.686 94.1586 560.048 94.2912 560.559 94.2912Q561.269 94.2912 561.594 93.9376Q561.614 93.9162 561.632 93.8935Q561.79 93.7014 561.873 93.4811Q561.962 93.245 561.966 92.9773ZM28.4006 104C28.4006 105.567 28.107 106.91 27.5199 108.027Q26.8807 109.248 25.8994 110.051Q25.5394 110.346 25.1335 110.584C24.1297 111.176 22.991 111.472 21.7173 111.472C20.4437 111.472 19.3026 111.176 18.294 110.584C17.2903 109.987 16.4948 109.133 15.9077 108.02C15.3253 106.902 15.0341 105.562 15.0341 104C15.0341 102.433 15.3253 101.093 15.9077 99.9801C16.4948 98.8627 17.2903 98.0081 18.294 97.4162C19.3026 96.8243 20.4437 96.5284 21.7173 96.5284C22.991 96.5284 24.1297 96.8243 25.1335 97.4162C26.1421 98.0081 26.9375 98.8627 27.5199 99.9801C28.107 101.093 28.4006 102.433 28.4006 104ZM99.739 104C99.739 105.567 99.4454 106.91 98.8583 108.027C98.2759 109.14 97.4805 109.992 96.472 110.584C95.4681 111.176 94.3294 111.472 93.0558 111.472C91.7821 111.472 90.641 111.176 89.6324 110.584C88.6287 109.987 87.8332 109.133 87.2461 108.02C86.8283 107.218 86.5604 106.302 86.4423 105.271L84.0501 105.271L84.0501 111.273L81.4151 111.273L81.4151 96.7273L84.0501 96.7273L84.0501 103.155L86.4023 103.155C86.49 101.946 86.7713 100.887 87.2461 99.9801C87.8332 98.8627 88.6287 98.0081 89.6324 97.4162C90.641 96.8243 91.7821 96.5284 93.0558 96.5284C94.3294 96.5284 95.4681 96.8243 96.472 97.4162C97.4805 98.0081 98.2759 98.8627 98.8583 99.9801C99.4454 101.093 99.739 102.433 99.739 104ZM442.815 104C442.815 105.567 442.521 106.91 441.934 108.027C441.352 109.14 440.556 109.992 439.548 110.584C438.544 111.176 437.405 111.472 436.131 111.472C434.858 111.472 433.717 111.176 432.708 110.584C431.704 109.987 430.909 109.133 430.322 108.02C429.739 106.902 429.448 105.562 429.448 104C429.448 102.433 429.739 101.093 430.322 99.9801C430.909 98.8627 431.704 98.0081 432.708 97.4162C433.717 96.8243 434.858 96.5284 436.131 96.5284C437.405 96.5284 438.544 96.8243 439.548 97.4162C440.556 98.0081 441.352 98.8627 441.934 99.9801C442.521 101.093 442.815 102.433 442.815 104ZM532.482 111.472C531.459 111.472 530.55 111.296 529.754 110.946C528.964 110.596 528.339 110.108 527.879 109.483C527.42 108.858 527.176 108.136 527.148 107.317L529.818 107.317C529.842 107.71 529.972 108.053 530.209 108.347C530.446 108.635 530.76 108.86 531.153 109.021C531.546 109.182 531.987 109.263 532.474 109.263C532.995 109.263 533.457 109.173 533.859 108.993C534.262 108.808 534.577 108.553 534.804 108.226C535.031 107.899 535.143 107.523 535.138 107.097C535.143 106.656 535.029 106.268 534.797 105.932C534.565 105.596 534.229 105.333 533.788 105.143C533.353 104.954 532.827 104.859 532.212 104.859L530.926 104.859L530.926 102.828L532.212 102.828C532.718 102.828 533.161 102.741 533.54 102.565C533.923 102.39 534.224 102.144 534.442 101.827C534.66 101.505 534.766 101.133 534.761 100.712C534.766 100.3 534.674 99.9422 534.484 99.6392C534.3 99.3314 534.037 99.0923 533.696 98.9219C533.36 98.7514 532.964 98.6662 532.51 98.6662C532.065 98.6662 531.653 98.7467 531.274 98.9077C530.895 99.0687 530.59 99.2983 530.358 99.5966Q530.259 99.7218 530.187 99.8608Q530.004 100.211 529.989 100.648L527.453 100.648C527.472 99.8333 527.706 99.1184 528.156 98.5028C528.611 97.8826 529.217 97.3996 529.974 97.054C530.732 96.7036 531.582 96.5284 532.524 96.5284C533.495 96.5284 534.338 96.7107 535.053 97.0753C535.772 97.4351 536.329 97.9205 536.722 98.5312C537.115 99.142 537.311 99.8168 537.311 100.555C537.316 101.375 537.074 102.061 536.587 102.615C536.104 103.169 535.469 103.531 534.683 103.702L534.683 103.815C535.706 103.957 536.49 104.336 537.034 104.952C537.583 105.562 537.856 106.322 537.851 107.232C537.851 108.046 537.619 108.775 537.155 109.419C536.696 110.058 536.061 110.56 535.251 110.925C534.446 111.289 533.523 111.472 532.482 111.472ZM10.1491 111.273L5.36221 104.916L4.06961 104.916L4.06961 111.273L1.43466 111.273L1.43466 96.7273L4.06961 96.7273L4.06961 102.707L4.7301 102.707L9.90057 96.7273L13.1463 96.7273L7.40057 103.361L13.3949 111.273L10.1491 111.273ZM31.8917 96.7273L35.1161 96.7273L39.4343 107.267L39.6048 107.267L43.9229 96.7273L47.1474 96.7273L47.1474 111.273L44.619 111.273L44.619 101.28L44.484 101.28L40.4641 111.23L38.5749 111.23L34.5551 101.259L34.4201 101.259L34.4201 111.273L31.8917 111.273L31.8917 96.7273ZM62.8846 96.7273L62.8846 111.273L60.2709 111.273L60.2709 98.9148L53.9073 98.9148L53.9073 111.273L51.2937 111.273L51.2937 96.7273L62.8846 96.7273ZM69.7067 102.345L72.5121 102.345C73.6248 102.345 74.5788 102.527 75.3743 102.892C76.1745 103.252 76.7877 103.761 77.2138 104.419C77.6399 105.077 77.853 105.851 77.853 106.741C77.853 107.636 77.6399 108.425 77.2138 109.107C76.7877 109.784 76.1745 110.314 75.3743 110.697C74.5788 111.081 73.6248 111.273 72.5121 111.273L67.0646 111.273L67.0646 96.7273L69.7067 96.7273L69.7067 102.345ZM102.616 98.9361L102.616 96.7273L114.221 96.7273L114.221 98.9361L109.725 98.9361L109.725 111.273L107.112 111.273L107.112 98.9361L102.616 98.9361ZM117.458 111.273L117.458 96.7273L126.918 96.7273L126.918 98.9361L120.093 98.9361L120.093 102.885L126.428 102.885L126.428 105.094L120.093 105.094L120.093 109.064L126.975 109.064L126.975 111.273L117.458 111.273ZM130.607 111.273L130.607 96.7273L136.061 96.7273C137.178 96.7273 138.116 96.9356 138.874 97.3523C139.636 97.7689 140.211 98.3419 140.599 99.071C140.992 99.7955 141.189 100.619 141.189 101.543C141.189 102.475 140.992 103.304 140.599 104.028C140.206 104.753 139.626 105.323 138.859 105.74C138.092 106.152 137.148 106.358 136.026 106.358L133.241 106.358L133.241 111.273L130.607 111.273ZM144.478 111.273L144.478 96.7273L147.113 96.7273L147.113 102.885L153.853 102.885L153.853 96.7273L156.495 96.7273L156.495 111.273L153.853 111.273L153.853 105.094L147.113 105.094L147.113 111.273L144.478 111.273ZM163.031 102.345L165.836 102.345C166.949 102.345 167.903 102.527 168.698 102.892C169.499 103.252 170.112 103.761 170.538 104.419C170.964 105.077 171.177 105.851 171.177 106.741C171.177 107.636 170.964 108.425 170.538 109.107C170.112 109.784 169.499 110.314 168.698 110.697C167.903 111.081 166.949 111.273 165.836 111.273L160.389 111.273L160.389 96.7273L163.031 96.7273L163.031 102.345ZM175.076 96.7273L175.076 111.273L172.434 111.273L172.434 96.7273L175.076 96.7273ZM178.939 96.7273L181.552 96.7273L181.552 106.642L181.687 106.642L188.527 96.7273L190.892 96.7273L190.892 111.273L188.257 111.273L188.257 101.365L188.136 101.365L181.275 111.273L178.939 111.273L178.939 96.7273ZM209.438 111.273L204.651 104.916L203.359 104.916L203.359 111.273L200.724 111.273L200.724 96.7273L203.359 96.7273L203.359 102.707L204.019 102.707L209.19 96.7273L212.435 96.7273L206.69 103.361L212.684 111.273L209.438 111.273ZM214.529 111.273L214.529 109.085L214.941 109.064C215.5 109.031 215.943 108.83 216.269 108.46C216.601 108.091 216.844 107.497 217.001 106.678C217.162 105.858 217.268 104.76 217.32 103.382L217.562 96.7273L227.093 96.7273L227.093 111.273L224.515 111.273L224.515 98.8935L220.019 98.8935L219.792 104.199C219.726 105.79 219.55 107.108 219.266 108.155C218.987 109.201 218.528 109.982 217.888 110.499C217.254 111.015 216.371 111.273 215.239 111.273L214.529 111.273ZM232.266 111.472L232.266 109.256L233.097 109.256C233.471 109.256 233.778 109.201 234.02 109.092C234.261 108.983 234.456 108.827 234.602 108.624C234.754 108.42 234.879 108.183 234.979 107.913L235.17 107.423L229.972 96.7273L232.727 96.7273L236.349 104.511L239.482 96.7273L242.195 96.7273L237.18 108.588C236.948 109.099 236.681 109.575 236.378 110.016C236.075 110.451 235.679 110.804 235.192 111.074C234.709 111.339 234.079 111.472 233.303 111.472L232.266 111.472ZM245.071 111.273L245.071 96.7273L254.425 96.7273L254.425 98.9361L247.706 98.9361L247.706 102.345L250.512 102.345C251.624 102.345 252.578 102.527 253.374 102.892C254.174 103.252 254.787 103.761 255.213 104.419C255.64 105.077 255.853 105.851 255.853 106.741C255.853 107.636 255.64 108.425 255.213 109.107C254.787 109.784 254.174 110.314 253.374 110.697C252.578 111.081 251.624 111.273 250.512 111.273L245.071 111.273ZM264.174 114.781L264.174 109.121L265.147 109.121C265.473 108.86 265.779 108.493 266.063 108.02C266.347 107.546 266.588 106.898 266.787 106.074C266.986 105.25 267.123 104.185 267.199 102.878L267.583 96.7273L276.88 96.7273L276.88 109.121L278.499 109.121L278.499 114.767L275.971 114.767L275.971 111.273L266.702 111.273L266.702 114.781L264.174 114.781ZM280.701 111.273L280.701 109.085L281.113 109.064C281.672 109.031 282.114 108.83 282.441 108.46C282.772 108.091 283.016 107.497 283.173 106.678C283.334 105.858 283.44 104.76 283.492 103.382L283.734 96.7273L293.265 96.7273L293.265 111.273L290.687 111.273L290.687 98.8935L286.191 98.8935L285.964 104.199C285.897 105.79 285.722 107.108 285.438 108.155C285.159 109.201 284.7 109.982 284.06 110.499C283.426 111.015 282.543 111.273 281.411 111.273L280.701 111.273ZM307.876 111.273L305.234 111.273L305.234 105.946L302.553 105.946L299.695 111.273L296.754 111.273L299.9 105.514C299.806 105.476 299.713 105.435 299.624 105.392C298.857 105.018 298.274 104.49 297.876 103.808C297.483 103.122 297.287 102.312 297.287 101.379C297.287 100.451 297.481 99.6392 297.869 98.9432C298.262 98.2424 298.84 97.6979 299.602 97.3097Q300.746 96.7273 302.415 96.7273L307.876 96.7273L307.876 111.273ZM317.053 98.9361L317.053 96.7273L328.658 96.7273L328.658 98.9361L324.163 98.9361L324.163 111.273L321.549 111.273L321.549 98.9361L317.053 98.9361ZM331.896 111.273L331.896 96.7273L341.356 96.7273L341.356 98.9361L334.531 98.9361L334.531 102.885L340.866 102.885L340.866 105.094L334.531 105.094L334.531 109.064L341.413 109.064L341.413 111.273L331.896 111.273ZM345.044 111.273L345.044 96.7273L354.398 96.7273L354.398 98.9361L347.679 98.9361L347.679 102.345L350.484 102.345C351.597 102.345 352.551 102.527 353.347 102.892C354.147 103.252 354.76 103.761 355.186 104.419Q355.265 104.54 355.333 104.667Q355.825 105.57 355.825 106.741C355.825 107.636 355.612 108.425 355.186 109.107C354.76 109.784 354.147 110.314 353.347 110.697C352.551 111.081 351.597 111.273 350.484 111.273L345.044 111.273ZM369.869 111.273L367.227 111.273L367.227 105.946L364.545 105.946L361.687 111.273L358.746 111.273L361.893 105.514C361.798 105.476 361.706 105.435 361.616 105.392C360.849 105.018 360.266 104.49 359.869 103.808C359.476 103.122 359.279 102.312 359.279 101.379C359.279 100.451 359.473 99.6392 359.862 98.9432C360.255 98.2424 360.832 97.6979 361.594 97.3097Q362.738 96.7273 364.407 96.7273L369.869 96.7273L369.869 111.273ZM379.685 96.7273L382.298 96.7273L382.298 106.642L382.433 106.642L389.273 96.7273L391.638 96.7273L391.638 111.273L389.003 111.273L389.003 101.365L388.882 101.365L382.021 111.273L379.685 111.273L379.685 96.7273ZM400.831 98.9361L400.831 96.7273L412.436 96.7273L412.436 98.9361L407.94 98.9361L407.94 111.273L405.326 111.273L405.326 98.9361L400.831 98.9361ZM415.673 111.273L415.673 96.7273L421.241 96.7273C422.292 96.7273 423.166 96.893 423.862 97.2244C424.563 97.5511 425.086 97.9986 425.431 98.5668C425.782 99.1349 425.957 99.7789 425.957 100.499C425.957 101.09 425.843 101.597 425.616 102.018C425.389 102.435 425.083 102.774 424.7 103.034Q424.629 103.082 424.556 103.127L424.553 103.129Q424.035 103.446 423.414 103.595L423.414 103.737C423.931 103.766 424.425 103.924 424.899 104.213C425.377 104.497 425.768 104.9 426.071 105.42C426.374 105.941 426.525 106.571 426.525 107.31C426.525 108.062 426.343 108.74 425.978 109.341C425.614 109.938 425.065 110.409 424.331 110.754C423.597 111.1 422.673 111.273 421.561 111.273L415.673 111.273ZM446.306 96.7273L448.919 96.7273L448.919 106.642L449.054 106.642L455.894 96.7273L458.259 96.7273L458.259 111.273L455.624 111.273L455.624 101.365L455.503 101.365L448.642 111.273L446.306 111.273L446.306 96.7273ZM464.332 96.7273L467.535 102.054L467.648 102.054L470.866 96.7273L473.87 96.7273L469.388 104L473.941 111.273L470.887 111.273L467.648 105.982L467.535 105.982L464.296 111.273L461.256 111.273L465.852 104L461.313 96.7273L464.332 96.7273ZM481.955 114.781L481.955 109.121L482.928 109.121C483.255 108.86 483.56 108.493 483.844 108.02C484.128 107.546 484.37 106.898 484.569 106.074C484.767 105.25 484.905 104.185 484.98 102.878L485.364 96.7273L494.661 96.7273L494.661 109.121L496.28 109.121L496.28 114.767L493.752 114.767L493.752 111.273L484.483 111.273L484.483 114.781L481.955 114.781ZM499.427 111.273L499.427 96.7273L504.881 96.7273C505.999 96.7273 506.936 96.9356 507.694 97.3523C508.456 97.7689 509.031 98.3419 509.42 99.071C509.813 99.7955 510.009 100.619 510.009 101.543Q510.009 102.917 509.441 103.989Q509.431 104.008 509.42 104.027L509.42 104.028C509.027 104.753 508.447 105.323 507.68 105.74C506.913 106.152 505.968 106.358 504.846 106.358L502.062 106.358L502.062 111.273L499.427 111.273ZM514.598 111.472L514.598 109.256L515.429 109.256C515.803 109.256 516.11 109.201 516.352 109.092C516.593 108.983 516.788 108.827 516.934 108.624C517.086 108.42 517.211 108.183 517.311 107.913L517.503 107.423L512.304 96.7273L515.059 96.7273L518.681 104.511L521.814 96.7273L524.527 96.7273L519.512 108.588C519.28 109.099 519.013 109.575 518.71 110.016C518.407 110.451 518.011 110.804 517.524 111.074C517.041 111.339 516.411 111.472 515.635 111.472L514.598 111.472ZM541.431 111.273L541.431 96.7273L550.891 96.7273L550.891 98.9361L544.066 98.9361L544.066 102.885L550.401 102.885L550.401 105.094L544.066 105.094L544.066 109.064L550.948 109.064L550.948 111.273L541.431 111.273ZM554.579 96.7273L557.193 96.7273L557.193 106.642L557.328 106.642L564.167 96.7273L566.532 96.7273L566.532 111.273L563.897 111.273L563.897 101.365L563.777 101.365L556.916 111.273L554.579 111.273L554.579 96.7273ZM25.7514 104C25.7514 102.897 25.5786 101.966 25.233 101.209C24.8921 100.447 24.4185 99.8712 23.8125 99.483C23.2065 99.09 22.5081 98.8935 21.7173 98.8935C20.9266 98.8935 20.2282 99.09 19.6222 99.483C19.0161 99.8712 18.5403 100.447 18.1946 101.209Q17.6832 102.345 17.6832 104C17.6832 105.103 17.8537 106.036 18.1946 106.798C18.5403 107.556 19.0161 108.131 19.6222 108.524C20.2282 108.912 20.9266 109.107 21.7173 109.107C22.5081 109.107 23.2065 108.912 23.8125 108.524C24.4185 108.131 24.8921 107.556 25.233 106.798C25.5786 106.036 25.7514 105.103 25.7514 104ZM97.0898 104Q97.0898 102.345 96.5714 101.209C96.2305 100.447 95.757 99.8712 95.1509 99.483C94.5449 99.09 93.8465 98.8935 93.0558 98.8935C92.265 98.8935 91.5667 99.09 90.9606 99.483C90.3545 99.8712 89.8787 100.447 89.533 101.209Q89.0217 102.345 89.0217 104C89.0217 105.103 89.1921 106.036 89.533 106.798C89.8787 107.556 90.3545 108.131 90.9606 108.524C91.5667 108.912 92.265 109.107 93.0558 109.107C93.8465 109.107 94.5449 108.912 95.1509 108.524C95.757 108.131 96.2305 107.556 96.5714 106.798C96.917 106.036 97.0898 105.103 97.0898 104ZM440.166 104C440.166 102.897 439.993 101.966 439.647 101.209C439.306 100.447 438.833 99.8712 438.227 99.483C437.62 99.09 436.922 98.8935 436.131 98.8935C435.341 98.8935 434.642 99.09 434.036 99.483C433.43 99.8712 432.954 100.447 432.609 101.209C432.268 101.966 432.097 102.897 432.097 104C432.097 105.103 432.268 106.036 432.609 106.798C432.954 107.556 433.43 108.131 434.036 108.524C434.642 108.912 435.341 109.107 436.131 109.107Q437.069 109.107 437.833 108.743L437.836 108.742Q438.037 108.646 438.227 108.524C438.833 108.131 439.306 107.556 439.647 106.798C439.993 106.036 440.166 105.103 440.166 104ZM418.308 102.913L420.914 102.913C421.369 102.913 421.779 102.83 422.143 102.665C422.508 102.494 422.794 102.255 423.002 101.947Q423.057 101.868 423.102 101.784Q423.322 101.37 423.322 100.839C423.322 100.276 423.123 99.812 422.725 99.4474C422.333 99.0829 421.748 98.9006 420.971 98.9006L418.308 98.9006L418.308 102.913ZM135.67 104.192L133.241 104.192L133.241 98.929L135.656 98.929C136.314 98.929 136.852 99.0403 137.268 99.2628Q137.707 99.4893 137.985 99.8423Q138.107 99.9983 138.199 100.179C138.402 100.572 138.504 101.027 138.504 101.543C138.504 102.059 138.402 102.516 138.199 102.913C138 103.311 137.692 103.624 137.276 103.851C136.859 104.078 136.324 104.192 135.67 104.192ZM305.234 98.929L305.234 103.759L302.805 103.759C302.157 103.759 301.622 103.669 301.2 103.489C300.784 103.304 300.476 103.036 300.277 102.686C300.078 102.331 299.979 101.895 299.979 101.379C299.979 100.863 300.078 100.423 300.277 100.058C300.481 99.6889 300.791 99.4096 301.207 99.2202C301.629 99.026 302.166 98.929 302.82 98.929L305.234 98.929ZM367.227 98.929L367.227 103.759L364.798 103.759C364.149 103.759 363.614 103.669 363.193 103.489C362.776 103.304 362.468 103.036 362.269 102.686C362.07 102.331 361.971 101.895 361.971 101.379C361.971 100.863 362.07 100.423 362.269 100.058C362.473 99.6889 362.783 99.4096 363.2 99.2202C363.621 99.026 364.158 98.929 364.812 98.929L367.227 98.929ZM504.491 104.192L502.062 104.192L502.062 98.929L504.477 98.929C505.135 98.929 505.672 99.0403 506.089 99.2628C506.51 99.4806 506.82 99.786 507.019 100.179C507.223 100.572 507.325 101.027 507.325 101.543C507.325 102.059 507.223 102.516 507.019 102.913C506.82 103.311 506.513 103.624 506.096 103.851C505.679 104.078 505.144 104.192 504.491 104.192ZM268.215 109.121L274.351 109.121L274.351 98.9361L269.955 98.9361L269.728 102.878C269.666 103.867 269.567 104.753 269.429 105.534C269.292 106.315 269.119 107.004 268.911 107.601C268.703 108.193 268.471 108.699 268.215 109.121ZM485.996 109.121L492.132 109.121L492.132 98.9361L487.736 98.9361L487.509 102.878C487.447 103.867 487.348 104.753 487.211 105.534C487.073 106.315 486.9 107.004 486.692 107.601C486.484 108.193 486.252 108.699 485.996 109.121ZM69.7067 109.114L69.7067 104.49L72.5121 104.49C73.3928 104.49 74.0675 104.708 74.5362 105.143C75.0097 105.574 75.2465 106.098 75.2465 106.713C75.2465 107.139 75.1399 107.535 74.9268 107.899C74.7185 108.264 74.4108 108.557 74.0035 108.78C73.5963 109.002 73.0992 109.114 72.5121 109.114L69.7067 109.114ZM163.031 109.114L163.031 104.49L165.836 104.49C166.717 104.49 167.392 104.708 167.86 105.143C168.334 105.574 168.571 106.098 168.571 106.713C168.571 107.139 168.464 107.535 168.251 107.899C168.043 108.264 167.735 108.557 167.328 108.78Q166.717 109.114 165.836 109.114L163.031 109.114ZM247.706 109.114L250.512 109.114C251.099 109.114 251.596 109.002 252.003 108.78C252.41 108.557 252.718 108.264 252.927 107.899C253.14 107.535 253.246 107.139 253.246 106.713C253.246 106.098 253.009 105.574 252.536 105.143C252.067 104.708 251.392 104.49 250.512 104.49L247.706 104.49L247.706 109.114ZM347.679 109.114L350.484 109.114Q351.365 109.114 351.976 108.78C352.383 108.557 352.691 108.264 352.899 107.899C353.112 107.535 353.219 107.139 353.219 106.713C353.219 106.098 352.982 105.574 352.509 105.143C352.04 104.708 351.365 104.49 350.484 104.49L347.679 104.49L347.679 109.114ZM418.308 109.071L421.142 109.071C422.098 109.071 422.787 108.889 423.208 108.524C423.635 108.155 423.848 107.681 423.848 107.104C423.848 106.673 423.741 106.285 423.528 105.939C423.315 105.589 423.012 105.314 422.619 105.115Q422.029 104.81 421.213 104.81L418.308 104.81L418.308 109.071Z" clip-rule="evenodd" fill="#FFFFFF" fill-opacity="1.000000" fill-rule="evenodd"/>
</svg>
