<svg width="24.000000" height="24.000000" viewBox="0 0 24 24" fill="none" xmlns="http://www.w3.org/2000/svg" xmlns:xlink="http://www.w3.org/1999/xlink">
	<desc>
			Created with Pixso.
	</desc>
	<defs/>
	<path id="Subtract" d="M2.18 21.33C2.1 21.62 2.37 21.9 2.67 21.82L7.27 20.62C8.73 21.4 10.36 21.82 12.03 21.82L12.04 21.82C17.52 21.82 22 17.38 22 11.91C22 9.26 20.96 6.77 19.08 4.9C17.2 3.03 14.7 2 12.04 2C6.55 2 2.08 6.44 2.08 11.91C2.08 13.64 2.54 15.35 3.41 16.86L2.18 21.33ZM8.88 7.16C9.06 7.17 9.27 7.18 9.46 7.61C9.59 7.89 9.8 8.42 9.98 8.85C10.12 9.18 10.23 9.45 10.26 9.51C10.32 9.64 10.36 9.78 10.28 9.96C10.27 9.98 10.26 10 10.25 10.02C10.18 10.16 10.13 10.25 10.02 10.39C9.97 10.44 9.92 10.5 9.87 10.56C9.79 10.66 9.71 10.76 9.63 10.83C9.5 10.96 9.37 11.1 9.52 11.35C9.67 11.61 10.19 12.45 10.95 13.13C11.78 13.87 12.49 14.18 12.86 14.33C12.93 14.36 12.98 14.39 13.03 14.41C13.28 14.54 13.44 14.52 13.59 14.34C13.73 14.17 14.23 13.6 14.4 13.34C14.57 13.08 14.74 13.12 14.98 13.21C15.22 13.3 16.48 13.92 16.74 14.05C16.79 14.07 16.84 14.1 16.88 14.12C17.06 14.2 17.18 14.26 17.24 14.35C17.3 14.46 17.3 14.97 17.09 15.57C16.87 16.17 15.82 16.75 15.35 16.79C15.3 16.79 15.26 16.8 15.21 16.81C14.78 16.86 14.22 16.93 12.25 16.15C9.83 15.2 8.23 12.83 7.9 12.35C7.88 12.31 7.86 12.29 7.85 12.28L7.85 12.27C7.7 12.07 6.8 10.87 6.8 9.62C6.8 8.43 7.38 7.81 7.65 7.53C7.67 7.51 7.68 7.5 7.7 7.48C7.94 7.22 8.21 7.16 8.39 7.16C8.56 7.16 8.73 7.16 8.88 7.16Z" fill="#82FF80" fill-opacity="1.000000" fill-rule="evenodd"/>
	<path id="Subtract" d="M3.41 16.86L2.18 21.33C2.1 21.62 2.37 21.9 2.67 21.82L7.27 20.62C8.73 21.4 10.36 21.82 12.03 21.82L12.04 21.82C17.52 21.82 22 17.38 22 11.91C22 9.26 20.96 6.77 19.08 4.9C17.2 3.03 14.7 2 12.04 2C6.55 2 2.08 6.44 2.08 11.91C2.08 13.64 2.54 15.35 3.41 16.86ZM3.42 20.59L7.02 19.65Q7.2 19.6 7.39 19.62Q7.58 19.65 7.75 19.74Q8.21 19.99 8.7 20.18Q9.25 20.4 9.82 20.55Q10.4 20.69 10.98 20.76Q11.5 20.82 12.03 20.82L12.04 20.82Q13.03 20.82 13.98 20.61Q14.77 20.44 15.52 20.12Q16.27 19.8 16.95 19.36Q17.71 18.86 18.37 18.21Q19.06 17.52 19.57 16.72Q19.99 16.08 20.29 15.37Q20.62 14.61 20.79 13.82Q21 12.89 21 11.91Q21 10.84 20.75 9.82Q20.59 9.15 20.32 8.5Q20.05 7.85 19.68 7.26Q19.14 6.37 18.38 5.61Q17.62 4.85 16.73 4.31Q16.13 3.94 15.47 3.67Q14.84 3.41 14.18 3.25Q13.14 3 12.04 3Q11.04 3 10.09 3.2Q9.31 3.38 8.56 3.7Q7.8 4.02 7.12 4.46Q6.36 4.96 5.71 5.61Q5.02 6.3 4.5 7.09Q4.09 7.73 3.78 8.44Q3.46 9.2 3.28 10Q3.08 10.93 3.08 11.91Q3.08 12.49 3.15 13.06Q3.23 13.64 3.38 14.21Q3.53 14.76 3.75 15.28Q3.97 15.84 4.28 16.36Q4.38 16.53 4.4 16.73Q4.43 16.93 4.37 17.12L3.42 20.59ZM9.19 6.19Q9.07 6.17 8.91 6.17Q8.75 6.16 8.39 6.16Q8.31 6.16 8.23 6.17Q7.96 6.19 7.7 6.29Q7.55 6.35 7.42 6.43Q7.17 6.58 6.97 6.8L6.93 6.84Q6.92 6.84 6.92 6.84Q6.74 7.04 6.62 7.19Q6.4 7.46 6.24 7.77Q6.16 7.92 6.1 8.07Q5.8 8.79 5.8 9.62Q5.8 10.65 6.37 11.79Q6.66 12.35 7.04 12.87Q7.05 12.87 7.05 12.87Q7.05 12.88 7.08 12.91Q7.77 13.93 8.57 14.77Q10.14 16.39 11.89 17.08Q13.29 17.63 14.14 17.77Q14.52 17.84 14.85 17.83Q15.05 17.83 15.33 17.8Q15.41 17.79 15.44 17.79Q15.77 17.76 16.17 17.59Q16.52 17.45 16.85 17.23Q17.23 16.99 17.5 16.71Q17.88 16.33 18.03 15.91Q18.22 15.37 18.26 14.86Q18.32 14.21 18.1 13.84L18.09 13.84Q17.93 13.56 17.63 13.38Q17.53 13.32 17.32 13.22Q17.23 13.18 17.19 13.15Q16.82 12.97 16.29 12.71Q15.53 12.35 15.33 12.27Q15.17 12.21 15.04 12.18Q14.79 12.12 14.55 12.15Q14.4 12.17 14.25 12.22Q14.09 12.28 13.95 12.38Q13.73 12.54 13.57 12.79Q13.46 12.94 13.12 13.35Q12.81 13.21 12.58 13.08Q12.08 12.79 11.62 12.39Q11.2 12.01 10.81 11.49Q10.71 11.35 10.62 11.23Q10.63 11.21 10.65 11.19Q10.73 11.09 10.77 11.04Q10.91 10.88 11.01 10.71Q11.07 10.62 11.15 10.45L11.18 10.39Q11.28 10.19 11.31 9.97Q11.33 9.8 11.32 9.62Q11.29 9.34 11.15 9.06Q11.14 9.04 10.9 8.47L10.9 8.47Q10.51 7.5 10.37 7.2Q10.11 6.62 9.67 6.36Q9.6 6.32 9.52 6.29Q9.37 6.22 9.19 6.19ZM8.88 7.16C9.06 7.17 9.27 7.18 9.46 7.61C9.59 7.89 9.8 8.42 9.98 8.85C10.12 9.18 10.23 9.45 10.26 9.51C10.32 9.64 10.36 9.78 10.28 9.96C10.27 9.98 10.26 10 10.25 10.02C10.18 10.16 10.13 10.25 10.02 10.39C9.97 10.44 9.92 10.5 9.87 10.56C9.79 10.66 9.71 10.76 9.63 10.83C9.5 10.96 9.37 11.1 9.52 11.35C9.67 11.61 10.19 12.45 10.95 13.13C11.78 13.87 12.49 14.18 12.86 14.33C12.93 14.36 12.98 14.39 13.03 14.41C13.28 14.54 13.44 14.52 13.59 14.34C13.73 14.17 14.23 13.6 14.4 13.34C14.57 13.08 14.74 13.12 14.98 13.21C15.22 13.3 16.48 13.92 16.74 14.05C16.79 14.07 16.84 14.1 16.88 14.12C17.06 14.2 17.18 14.26 17.24 14.35C17.3 14.46 17.3 14.97 17.09 15.57C16.87 16.17 15.82 16.75 15.35 16.79C15.3 16.79 15.26 16.8 15.21 16.81C14.78 16.86 14.22 16.93 12.25 16.15C9.83 15.2 8.23 12.83 7.9 12.35C7.88 12.31 7.86 12.29 7.85 12.28L7.85 12.27C7.7 12.07 6.8 10.87 6.8 9.62C6.8 8.43 7.38 7.81 7.65 7.53C7.67 7.51 7.68 7.5 7.7 7.48C7.94 7.22 8.21 7.16 8.39 7.16C8.56 7.16 8.73 7.16 8.88 7.16Z" fill="#82FF80" fill-opacity="1.000000" fill-rule="evenodd"/>
</svg>
